<svg xmlns="http://www.w3.org/2000/svg" width="54.43" height="38.219" viewBox="0 0 54.43 38.219"><defs><style>.a{fill:#00a5ff;stroke:#00a5ff;}</style></defs><g transform="translate(-0.5 -0.5)"><g transform="translate(12.197 1)"><path class="a" d="M31.84,61.662H.852a.541.541,0,0,1-.542-.542V53.8a8.494,8.494,0,0,1,8.483-8.485H23.9A8.493,8.493,0,0,1,32.382,53.8v7.321a.541.541,0,0,1-.542.542ZM1.392,60.579H31.3V53.8a7.409,7.409,0,0,0-7.4-7.4H8.793a7.409,7.409,0,0,0-7.4,7.4v6.779Z" transform="translate(-0.31 -24.443)"/><path class="a" d="M25.191,16.971a8.485,8.485,0,1,1,8.483-8.485A8.494,8.494,0,0,1,25.191,16.971Zm0-15.888a7.4,7.4,0,1,0,7.4,7.4,7.41,7.41,0,0,0-7.4-7.4Z" transform="translate(-9.155)"/></g><g transform="translate(37.913 9.832)"><path class="a" d="M19.451,42.551H9.126a.55.55,0,0,1,0-1.1h9.792V37.006a4.791,4.791,0,0,0-4.7-4.863H6.837a.55.55,0,0,1,0-1.1h7.377a5.875,5.875,0,0,1,5.769,5.963V42a.541.541,0,0,1-.532.55Z" transform="translate(-3.465 -16.825)"/><path class="a" d="M5.909,12.1A5.875,5.875,0,0,1,.14,6.137,5.875,5.875,0,0,1,5.909.175a5.875,5.875,0,0,1,5.769,5.962A5.875,5.875,0,0,1,5.909,12.1Zm0-10.825A4.79,4.79,0,0,0,1.2,6.137,4.791,4.791,0,0,0,5.909,11a4.791,4.791,0,0,0,4.7-4.863,4.79,4.79,0,0,0-4.7-4.862Z" transform="translate(-0.14 -0.175)"/></g><g transform="translate(1 9.832)"><path class="a" d="M10.856,42.552H.532A.541.541,0,0,1,0,42V37.007a5.875,5.875,0,0,1,5.769-5.963h7.376a.551.551,0,0,1,0,1.1H5.769a4.791,4.791,0,0,0-4.7,4.863v4.445h9.792a.55.55,0,0,1,0,1.1Z" transform="translate(0 -16.826)"/><path class="a" d="M16.58,12.1a5.874,5.874,0,0,1-5.768-5.963A5.874,5.874,0,0,1,16.58.175a5.875,5.875,0,0,1,5.769,5.962A5.875,5.875,0,0,1,16.58,12.1Zm0-10.825a4.79,4.79,0,0,0-4.7,4.862A4.791,4.791,0,0,0,16.58,11a4.791,4.791,0,0,0,4.7-4.863,4.79,4.79,0,0,0-4.7-4.862Z" transform="translate(-5.832 -0.175)"/></g></g></svg>